<svg xmlns="http://www.w3.org/2000/svg" viewBox="0 0 800 450" width="800" height="450">
  <rect width="800" height="450" fill="#f8fafc" />
  <!-- Desktop Navbar -->
  <text x="50" y="40" font-family="sans-serif" font-size="14" font-weight="bold" fill="#64748b">Desktop View</text>
  <rect x="50" y="60" width="700" height="60" fill="#ffffff" rx="8" filter="drop-shadow(0 2px 4px rgba(0,0,0,0.05))" />
  <rect x="70" y="75" width="30" height="30" fill="#3b82f6" rx="15" />
  <text x="110" y="96" font-family="sans-serif" font-size="18" font-weight="bold" fill="#0f172a">Brand</text>
  <text x="350" y="95" font-family="sans-serif" font-size="14" fill="#475569">Home</text>
  <text x="420" y="95" font-family="sans-serif" font-size="14" fill="#475569">Features</text>
  <text x="500" y="95" font-family="sans-serif" font-size="14" fill="#475569">Pricing</text>
  <text x="570" y="95" font-family="sans-serif" font-size="14" fill="#475569">Contact</text>
  <rect x="640" y="75" width="90" height="30" fill="#3b82f6" rx="4" />
  <text x="685" y="95" font-family="sans-serif" font-size="12" font-weight="bold" fill="#ffffff" text-anchor="middle">Sign Up</text>
  
  <!-- Mobile Navbar Open State -->
  <text x="50" y="160" font-family="sans-serif" font-size="14" font-weight="bold" fill="#64748b">Mobile View (Menu Open)</text>
  <rect x="50" y="180" width="300" height="250" fill="#ffffff" rx="8" filter="drop-shadow(0 2px 4px rgba(0,0,0,0.05))" />
  <rect x="70" y="195" width="30" height="30" fill="#3b82f6" rx="15" />
  <text x="110" y="216" font-family="sans-serif" font-size="18" font-weight="bold" fill="#0f172a">Brand</text>
  <line x1="310" y1="205" x2="330" y2="225" stroke="#0f172a" stroke-width="2" />
  <line x1="310" y1="225" x2="330" y2="205" stroke="#0f172a" stroke-width="2" />
  
  <line x1="50" y1="240" x2="350" y2="240" stroke="#f1f5f9" />
  <text x="70" y="270" font-family="sans-serif" font-size="16" fill="#0f172a">Home</text>
  <line x1="50" y1="290" x2="350" y2="290" stroke="#f1f5f9" />
  <text x="70" y="320" font-family="sans-serif" font-size="16" fill="#0f172a">Features</text>
  <line x1="50" y1="340" x2="350" y2="340" stroke="#f1f5f9" />
  <text x="70" y="370" font-family="sans-serif" font-size="16" fill="#0f172a">Pricing</text>
  <rect x="70" y="390" width="260" height="30" fill="#3b82f6" rx="4" />
  <text x="200" y="410" font-family="sans-serif" font-size="14" font-weight="bold" fill="#ffffff" text-anchor="middle">Sign Up</text>
</svg>
